<svg width="137" height="32" viewBox="0 0 137 32" fill="none" xmlns="http://www.w3.org/2000/svg">
<g clip-path="url(#clip0_2001_4663)">
<path d="M21.3144 15.8646C21.3144 21.8755 11.9453 21.8755 11.9453 15.8646C11.9453 9.85373 21.3144 9.85373 21.3144 15.8646Z" fill="#A500B9"/>
<path d="M112.054 9.55371H106.555V31.2553H112.054V9.55371Z" fill="#A500B9"/>
<path d="M127.582 9.29004C127.458 9.29004 127.336 9.29349 127.215 9.29866C126.974 9.309 126.735 9.309 126.494 9.29866C126.374 9.29349 126.252 9.29004 126.128 9.29004C120.899 9.29004 116.707 13.1037 116.707 19.9004V31.2552H122.207V19.9435C122.207 17.748 123.034 15.911 124.63 14.9321C125.98 14.1032 127.731 14.1032 129.081 14.9321C130.677 15.911 131.505 17.748 131.505 19.9435V31.2552H137.004V19.9004C137.004 13.1054 132.812 9.29004 127.584 9.29004H127.582Z" fill="#A500B9"/>
<path d="M48.3175 9.64172H53.5921V31.2554H48.4079L48.1368 28.0983C46.8753 30.6419 43.4044 31.8689 40.9257 31.912C34.3454 31.955 29.4766 28.0104 29.4766 20.4244C29.4766 12.8384 34.5704 9.06959 41.0604 9.11267C44.0352 9.11267 46.8753 10.4724 48.1368 12.6196L48.3175 9.63828V9.64172ZM34.9761 20.4261C34.9761 24.5483 37.9066 27.0023 41.5565 27.0023C50.2115 27.0023 50.2115 13.8931 41.5565 13.8931C37.9049 13.8931 34.9761 16.304 34.9761 20.4244V20.4261Z" fill="#A500B9"/>
<path d="M72.7454 15.3839C71.1685 13.938 69.3648 13.4555 67.2458 13.4555C64.6307 13.4555 63.1885 14.2448 63.1885 15.6044C63.1885 16.9641 64.496 17.7965 67.3362 17.9723C71.5282 18.2359 76.847 19.1562 76.847 24.8999C76.847 28.7136 73.6472 32.0017 67.2919 32.0017C63.7767 32.0017 60.2597 31.4312 57.0156 28.1432L59.7193 24.3295C61.298 26.039 64.9035 27.3108 67.3822 27.3539C69.4552 27.397 71.3935 26.3458 71.3935 24.7672C71.3935 23.2766 70.132 22.6631 66.9765 22.4873C62.7845 22.1806 57.781 20.6899 57.781 15.7802C57.781 10.8705 63.0999 9.02832 67.1572 9.02832C70.6281 9.02832 73.2432 9.68662 75.8123 11.8787L72.7471 15.3856L72.7454 15.3839Z" fill="#A500B9"/>
<path d="M85.8628 0.567383V12.5788C87.8455 10.08 90.2799 9.33382 92.8046 9.33382C99.1157 9.33382 101.91 13.499 101.91 19.8563V31.2559H96.4102V19.9011C96.4102 15.9547 94.2911 14.29 91.3624 14.29C88.1165 14.29 85.8628 16.9646 85.8628 20.2096V31.2577H80.3633V0.567383H85.8628Z" fill="#A500B9"/>
<path d="M24.2502 22.8458C22.3189 24.9258 19.5249 26.2356 16.4243 26.2356C10.6076 26.2356 5.87517 21.6326 5.87517 15.975C5.87517 10.3174 10.6076 5.71447 16.4243 5.71447C19.3317 5.71447 21.9699 6.86564 23.8799 8.72336L28.0329 4.68394C25.0581 1.79223 20.9529 0 16.4243 0C7.367 0 0 7.16549 0 15.975C0 24.7845 7.367 31.95 16.4243 31.95C21.1053 31.95 25.3327 30.032 28.327 26.9645L24.2502 22.8458Z" fill="#A500B9"/>
</g>
<defs>
<clipPath id="clip0_2001_4663">
<rect width="137" height="32" fill="white"/>
</clipPath>
</defs>
</svg>
